<svg width="16" height="16" viewBox="0 0 16 16" fill="none" xmlns="http://www.w3.org/2000/svg">
<path d="M7.86896 3.24944C8.00961 3.10879 8.20038 3.02977 8.39929 3.02977C8.5982 3.02977 8.78897 3.10879 8.92962 3.24944L13.1793 7.49916C13.32 7.63981 13.399 7.83057 13.399 8.02949C13.399 8.2284 13.32 8.41916 13.1793 8.55982L8.92962 12.8095C8.78897 12.9502 8.5982 13.0292 8.39929 13.0292C8.20038 13.0292 8.00961 12.9502 7.86896 12.8095C7.72831 12.6689 7.64929 12.4781 7.64929 12.2792C7.64929 12.0803 7.72831 11.8895 7.86896 11.7489L10.8388 8.77902L3.39934 8.77973C3.26471 8.78471 3.13122 8.7533 3.01295 8.68878C2.89468 8.62427 2.796 8.52905 2.7273 8.41316C2.6586 8.29727 2.62244 8.16499 2.62261 8.03027C2.62279 7.89554 2.6593 7.76336 2.72829 7.64765C2.79685 7.53183 2.89536 7.43662 3.01344 7.37204C3.13153 7.30746 3.26483 7.2759 3.39934 7.28066L10.8388 7.27995L7.86896 4.3101C7.72831 4.16945 7.64929 3.97869 7.64929 3.77977C7.64929 3.58086 7.72831 3.3901 7.86896 3.24944Z" fill="#9198A1"/>
</svg>
