<svg width="14" height="12" viewBox="0 0 14 12" fill="none" xmlns="http://www.w3.org/2000/svg">
<path d="M10.867 2.35946C10.1452 2.01984 9.37652 1.76959 8.56672 1.62659C8.46697 1.80534 8.34961 2.04963 8.27332 2.24625C7.41659 2.11517 6.56572 2.11517 5.72659 2.24625C5.64444 2.04963 5.52708 1.80534 5.42732 1.62659C4.61753 1.76959 3.84881 2.01984 3.12704 2.35946C1.67176 4.58788 1.27861 6.76269 1.47225 8.90173C2.44048 9.63461 3.3735 10.0755 4.29479 10.3675C4.52364 10.0517 4.72315 9.71206 4.89919 9.36052C4.56472 9.2354 4.24784 9.07452 3.94857 8.88981C4.03072 8.83023 4.10701 8.76469 4.18329 8.70511C6.01999 9.57502 8.00926 9.57502 9.82249 8.70511C9.89877 8.77065 9.97506 8.83023 10.0572 8.88981C9.75794 9.07452 9.4352 9.22944 9.10659 9.36052C9.28263 9.71206 9.48214 10.0517 9.711 10.3675C10.6323 10.0755 11.5712 9.63461 12.5335 8.90173C12.7624 6.41711 12.1404 4.26613 10.8787 2.35946H10.867ZM5.14565 7.5909C4.59406 7.5909 4.14222 7.07252 4.14222 6.43498C4.14222 5.79744 4.58232 5.27906 5.14565 5.27906C5.70899 5.27906 6.15495 5.79744 6.14909 6.43498C6.14909 7.06656 5.70899 7.5909 5.14565 7.5909ZM8.84839 7.5909C8.29679 7.5909 7.84495 7.07252 7.84495 6.43498C7.84495 5.79744 8.28506 5.27906 8.84839 5.27906C9.41172 5.27906 9.8577 5.79744 9.85183 6.43498C9.85183 7.06656 9.41172 7.5909 8.84839 7.5909Z" fill="#8B949E"/>
</svg>
