<svg width="16" height="16" viewBox="0 0 16 16" fill="none" xmlns="http://www.w3.org/2000/svg">
<path d="M11.4917 0.545482L15.4545 4.50825C15.6667 4.72049 15.8244 4.98082 15.9144 5.26712C16.0043 5.55342 16.0237 5.8572 15.9711 6.15263C15.9184 6.44806 15.7951 6.72639 15.6117 6.96394C15.4284 7.2015 15.1904 7.39125 14.9179 7.51706L13.5051 8.16971C13.0542 8.37829 12.6565 8.68628 12.3417 9.07057C12.027 9.45485 11.8034 9.90545 11.6877 10.3885L11.0659 13.0013C10.7284 14.4194 8.96631 14.9177 7.93569 13.8871L5.58912 11.5405L1.3623 15.7663C1.2882 15.8404 1.20023 15.8991 1.10341 15.9393C1.00659 15.9794 0.902816 16 0.798019 16C0.693222 16 0.589451 15.9794 0.49263 15.9393C0.39581 15.8991 0.307837 15.8404 0.233734 15.7663C0.159631 15.6922 0.10085 15.6042 0.0607456 15.5074C0.0206414 15.4105 0 15.3068 0 15.202C0 15.0972 0.0206414 14.9934 0.0607456 14.8966C0.10085 14.7998 0.159631 14.7118 0.233734 14.6377L4.45948 10.4109L2.11291 8.06431C1.08229 7.03369 1.58056 5.27163 2.99873 4.93413L5.61147 4.31235C6.09483 4.1973 6.54573 3.97392 6.93011 3.65908C7.31449 3.34423 7.6223 2.94616 7.83028 2.49493L8.48294 1.08209C8.60875 0.809641 8.7985 0.571615 9.03606 0.388256C9.27361 0.204897 9.55194 0.0816304 9.84737 0.0289426C10.1428 -0.0237452 10.4466 -0.00429532 10.7329 0.0856376C11.0192 0.175571 11.2795 0.333325 11.4917 0.545482ZM6.15659 9.84979L9.06532 12.7575C9.09882 12.7909 9.14064 12.8149 9.18648 12.8268C9.23232 12.8388 9.28051 12.8382 9.32609 12.8253C9.37166 12.8124 9.41296 12.7876 9.44573 12.7534C9.4785 12.7192 9.50154 12.6768 9.51249 12.6308L10.1343 10.018C10.3058 9.29976 10.638 8.62975 11.1058 8.05843C11.5737 7.48711 12.165 7.02935 12.8354 6.71961L14.2493 6.06696C14.2883 6.049 14.3223 6.02188 14.3486 5.98792C14.3748 5.95396 14.3924 5.91416 14.4 5.87191C14.4075 5.82966 14.4047 5.78622 14.3918 5.74528C14.3789 5.70435 14.3563 5.66714 14.3259 5.63682L10.3632 1.67405C10.3329 1.64368 10.2956 1.62109 10.2547 1.6082C10.2138 1.59531 10.1703 1.59252 10.1281 1.60005C10.0858 1.60758 10.046 1.62521 10.0121 1.65144C9.97812 1.67768 9.951 1.71173 9.93304 1.75071L9.28039 3.16462C8.97078 3.83505 8.51306 4.42649 7.94172 4.89437C7.37037 5.36225 6.70031 5.69438 5.98199 5.86573L3.36924 6.48751C3.32316 6.49846 3.28083 6.5215 3.24663 6.55427C3.21242 6.58704 3.18758 6.62834 3.17467 6.67391C3.16176 6.71949 3.16124 6.76768 3.17317 6.81352C3.1851 6.85936 3.20905 6.90118 3.24254 6.93468L6.15021 9.8434L6.15659 9.84979Z" fill="#8B949E"/>
</svg>
