<svg width="16" height="17" viewBox="0 0 16 17" fill="none" xmlns="http://www.w3.org/2000/svg">
<path d="M13.1534 11.6087C13.4833 11.2002 13.6644 10.6917 13.6667 10.1667C13.6667 9.54782 13.4209 8.95433 12.9833 8.51674C12.5457 8.07916 11.9523 7.83332 11.3334 7.83332C10.7146 7.83332 10.1211 8.07916 9.6835 8.51674C9.24591 8.95433 9.00008 9.54782 9.00008 10.1667C9.00245 10.6917 9.18349 11.2002 9.51341 11.6087C8.9019 11.9226 8.38092 12.3878 8.00008 12.96C7.61924 12.3878 7.09826 11.9226 6.48675 11.6087C6.81667 11.2002 6.99771 10.6917 7.00008 10.1667C7.00008 9.54782 6.75425 8.95433 6.31666 8.51674C5.87908 8.07916 5.28559 7.83332 4.66675 7.83332C4.04791 7.83332 3.45442 8.07916 3.01683 8.51674C2.57925 8.95433 2.33341 9.54782 2.33341 10.1667C2.33578 10.6917 2.51683 11.2002 2.84675 11.6087C2.19113 11.9436 1.64068 12.4531 1.25604 13.0809C0.871395 13.7086 0.667478 14.4304 0.666748 15.1667C0.666748 15.3435 0.736986 15.513 0.86201 15.6381C0.987034 15.7631 1.1566 15.8333 1.33341 15.8333H14.6667C14.8436 15.8333 15.0131 15.7631 15.1382 15.6381C15.2632 15.513 15.3334 15.3435 15.3334 15.1667C15.3327 14.4304 15.1288 13.7086 14.7441 13.0809C14.3595 12.4531 13.809 11.9436 13.1534 11.6087ZM4.66675 9.16666C4.86453 9.16666 5.05787 9.2253 5.22232 9.33519C5.38677 9.44507 5.51494 9.60125 5.59063 9.78397C5.66632 9.9667 5.68612 10.1678 5.64753 10.3617C5.60895 10.5557 5.51371 10.7339 5.37385 10.8738C5.234 11.0136 5.05582 11.1089 4.86184 11.1474C4.66786 11.186 4.46679 11.1662 4.28406 11.0905C4.10134 11.0148 3.94516 10.8867 3.83528 10.7222C3.7254 10.5578 3.66675 10.3644 3.66675 10.1667C3.66675 9.90144 3.7721 9.64709 3.95964 9.45955C4.14718 9.27201 4.40153 9.16666 4.66675 9.16666ZM2.08408 14.5C2.23141 13.927 2.56512 13.4192 3.03268 13.0567C3.50024 12.6941 4.07509 12.4974 4.66675 12.4974C5.2584 12.4974 5.83326 12.6941 6.30081 13.0567C6.76837 13.4192 7.10208 13.927 7.24941 14.5H2.08408ZM11.3334 9.16666C11.5312 9.16666 11.7245 9.2253 11.889 9.33519C12.0534 9.44507 12.1816 9.60125 12.2573 9.78397C12.333 9.9667 12.3528 10.1678 12.3142 10.3617C12.2756 10.5557 12.1804 10.7339 12.0405 10.8738C11.9007 11.0136 11.7225 11.1089 11.5285 11.1474C11.3345 11.186 11.1335 11.1662 10.9507 11.0905C10.768 11.0148 10.6118 10.8867 10.5019 10.7222C10.3921 10.5578 10.3334 10.3644 10.3334 10.1667C10.3334 9.90144 10.4388 9.64709 10.6263 9.45955C10.8138 9.27201 11.0682 9.16666 11.3334 9.16666ZM8.75075 14.5C8.89808 13.927 9.23179 13.4192 9.69935 13.0567C10.1669 12.6941 10.7418 12.4974 11.3334 12.4974C11.9251 12.4974 12.4999 12.6941 12.9675 13.0567C13.435 13.4192 13.7688 13.927 13.9161 14.5H8.75075ZM4.00008 1.83332V5.83332C4.00008 6.01013 4.07032 6.1797 4.19534 6.30473C4.32037 6.42975 4.48994 6.49999 4.66675 6.49999H6.57675L7.48808 7.59399C7.55065 7.66902 7.62894 7.72938 7.71741 7.7708C7.80589 7.81222 7.90239 7.83369 8.00008 7.83369C8.09777 7.83369 8.19427 7.81222 8.28275 7.7708C8.37122 7.72938 8.44951 7.66902 8.51208 7.59399L9.42341 6.49999H11.3334C11.5102 6.49999 11.6798 6.42975 11.8048 6.30473C11.9298 6.1797 12.0001 6.01013 12.0001 5.83332V1.83332C12.0001 1.65651 11.9298 1.48694 11.8048 1.36192C11.6798 1.23689 11.5102 1.16666 11.3334 1.16666H4.66675C4.48994 1.16666 4.32037 1.23689 4.19534 1.36192C4.07032 1.48694 4.00008 1.65651 4.00008 1.83332ZM5.33341 2.49999H10.6667V5.16666H9.11141C9.01364 5.16651 8.91703 5.18788 8.82843 5.22924C8.73984 5.2706 8.66142 5.33094 8.59875 5.40599L8.00008 6.12532L7.40008 5.40599C7.33755 5.33112 7.25935 5.27088 7.171 5.22952C7.08265 5.18817 6.9863 5.16671 6.88875 5.16666H5.33341V2.49999Z" fill="#4C4C4C"/>
</svg>
