<svg width="14" height="14" viewBox="0 0 14 14" fill="none" xmlns="http://www.w3.org/2000/svg">
<g clip-path="url(#clip0_1_968)">
<path d="M9.70867 0.296875H4.29072C3.23173 0.297682 2.21635 0.71872 1.46754 1.46754C0.71872 2.21635 0.297682 3.23173 0.296875 4.29072V9.70867C0.297521 10.7678 0.718487 11.7833 1.46732 12.5322C2.21615 13.2812 3.23163 13.7023 4.29072 13.7031H9.70867C10.7677 13.7022 11.7831 13.281 12.5319 12.5321C13.2807 11.7832 13.7017 10.7677 13.7025 9.70867V4.29072C13.702 3.23163 13.2811 2.21607 12.5322 1.46718C11.7833 0.718294 10.7678 0.297359 9.70867 0.296875ZM12.3546 9.70867C12.3544 10.4104 12.0756 11.0833 11.5794 11.5794C11.0833 12.0756 10.4104 12.3544 9.70867 12.3546H4.29072C3.94328 12.3546 3.59925 12.2861 3.27827 12.1532C2.95728 12.0202 2.66564 11.8253 2.42 11.5796C2.17435 11.3339 1.97951 11.0422 1.84661 10.7212C1.71371 10.4002 1.64534 10.0561 1.64542 9.70867V4.29072C1.64534 3.94331 1.71371 3.59929 1.84662 3.27831C1.97953 2.95733 2.17438 2.66569 2.42003 2.42003C2.66569 2.17438 2.95733 1.97953 3.27831 1.84662C3.59929 1.71371 3.94331 1.64534 4.29072 1.64542H9.70867C10.4102 1.64558 11.0829 1.92434 11.579 2.42039C12.0751 2.91644 12.3538 3.58919 12.354 4.29072L12.3546 9.70867Z" fill="#8B949E"/>
<path d="M7.00006 3.53393C5.08784 3.53393 3.53394 5.08844 3.53394 7.00005C3.53394 8.91166 5.08845 10.4662 7.00006 10.4662C8.91167 10.4662 10.4662 8.91166 10.4662 7.00005C10.4662 5.08844 8.91228 3.53393 7.00006 3.53393ZM7.00006 9.11763C6.43844 9.11771 5.8998 8.89469 5.50262 8.49762C5.10544 8.10056 4.88226 7.56197 4.88218 7.00036C4.8821 6.43874 5.10512 5.90009 5.50219 5.50291C5.89925 5.10573 6.43783 4.88255 6.99945 4.88247C7.56107 4.88239 8.09971 5.10542 8.49689 5.50248C8.89407 5.89955 9.11725 6.43813 9.11733 6.99975C9.11741 7.56136 8.89439 8.10001 8.49733 8.49719C8.10026 8.89437 7.56168 9.11755 7.00006 9.11763ZM10.4735 2.72894C10.6377 2.72906 10.7982 2.77786 10.9347 2.86917C11.0712 2.96049 11.1776 3.09021 11.2404 3.24195C11.3031 3.3937 11.3195 3.56065 11.2875 3.72171C11.2554 3.88277 11.1763 4.03071 11.0602 4.14683C10.9441 4.26295 10.7961 4.34204 10.6351 4.37411C10.474 4.40618 10.3071 4.38978 10.1553 4.32699C10.0036 4.2642 9.87385 4.15784 9.78254 4.02135C9.69123 3.88485 9.64243 3.72435 9.64231 3.56013C9.64231 3.10188 9.95309 2.72894 10.4735 2.72894Z" fill="#8B949E"/>
</g>
<defs>
<clipPath id="clip0_1_968">
<rect width="13" height="13" fill="white" transform="translate(0.5 0.5)"/>
</clipPath>
</defs>
</svg>
