<svg width="16" height="17" viewBox="0 0 16 17" fill="none" xmlns="http://www.w3.org/2000/svg">
<path fill-rule="evenodd" clip-rule="evenodd" d="M0.666748 13.9933C0.666748 13.7135 0.895815 13.4867 1.17837 13.4867H14.8218C15.1043 13.4867 15.3334 13.7135 15.3334 13.9933C15.3334 14.2731 15.1043 14.5 14.8218 14.5H1.17837C0.895815 14.5 0.666748 14.2731 0.666748 13.9933Z" fill="#4C4C4C"/>
<path fill-rule="evenodd" clip-rule="evenodd" d="M2.45976 3.0936C1.86035 3.68719 1.86035 4.64257 1.86035 6.55333V9.93113C1.86035 11.2049 1.86035 11.8419 2.25996 12.2376C2.65956 12.6333 3.30272 12.6333 4.58903 12.6333H11.4108C12.697 12.6333 13.3402 12.6333 13.7398 12.2376C14.1394 11.8419 14.1394 11.2049 14.1394 9.93113V6.55333C14.1394 4.64257 14.1394 3.68719 13.54 3.0936C12.9406 2.5 11.9759 2.5 10.0464 2.5H5.95337C4.0239 2.5 3.05917 2.5 2.45976 3.0936ZM5.44174 10.6067C5.44174 10.3269 5.67081 10.1 5.95337 10.1H10.0464C10.329 10.1 10.558 10.3269 10.558 10.6067C10.558 10.8865 10.329 11.1133 10.0464 11.1133H5.95337C5.67081 11.1133 5.44174 10.8865 5.44174 10.6067Z" fill="#4C4C4C"/>
</svg>
