<svg width="16" height="12" viewBox="0 0 16 12" fill="none" xmlns="http://www.w3.org/2000/svg">
<path d="M1.99993 4C1.99986 3.41988 2.14399 2.84883 2.41936 2.33822C2.69473 1.82762 3.0927 1.39347 3.57748 1.07482C4.06226 0.756171 4.61865 0.563022 5.19659 0.512743C5.77454 0.462465 6.35591 0.556633 6.88844 0.786779C7.42096 1.01692 7.88792 1.37583 8.24733 1.83121C8.60674 2.2866 8.84732 2.82418 8.94742 3.3956C9.04753 3.96703 9.00403 4.55437 8.82084 5.10482C8.63764 5.65526 8.3205 6.15153 7.89793 6.549C8.69474 6.93566 9.38655 7.50876 9.91472 8.21971C10.4429 8.93066 10.7918 9.75849 10.9319 10.633C10.9474 10.7303 10.9435 10.8297 10.9205 10.9255C10.8975 11.0213 10.8559 11.1117 10.798 11.1914C10.7401 11.2711 10.6671 11.3386 10.5831 11.3901C10.4991 11.4416 10.4057 11.4761 10.3084 11.4915C10.2111 11.5069 10.1117 11.503 10.0159 11.4801C9.92011 11.4571 9.82977 11.4155 9.75005 11.3576C9.67033 11.2997 9.6028 11.2266 9.5513 11.1426C9.49981 11.0586 9.46536 10.9653 9.44993 10.868C9.29994 9.92831 8.81986 9.07287 8.0959 8.4553C7.37193 7.83773 6.45152 7.49848 5.49993 7.49848C4.54834 7.49848 3.62793 7.83773 2.90396 8.4553C2.18 9.07287 1.69992 9.92831 1.54993 10.868C1.53443 10.9653 1.49992 11.0586 1.44837 11.1426C1.39681 11.2266 1.32922 11.2996 1.24946 11.3574C1.16969 11.4153 1.07931 11.4568 0.983481 11.4798C0.887649 11.5027 0.78824 11.5065 0.69093 11.491C0.593621 11.4755 0.500316 11.441 0.416344 11.3894C0.332372 11.3379 0.259377 11.2703 0.201526 11.1905C0.143675 11.1108 0.102101 11.0204 0.079179 10.9246C0.0562567 10.8287 0.0524344 10.7293 0.0679304 10.632C0.208265 9.75782 0.557305 8.93036 1.08546 8.21977C1.61362 7.50918 2.30532 6.9364 3.10193 6.55C2.7536 6.22293 2.47608 5.82788 2.28653 5.38927C2.09698 4.95066 1.99944 4.47782 1.99993 4ZM10.9999 2.5C11.5809 2.50041 12.1493 2.66947 12.6361 2.98665C13.1229 3.30384 13.5072 3.75552 13.7423 4.28685C13.9773 4.81819 14.0531 5.40634 13.9604 5.97991C13.8677 6.55347 13.6104 7.08779 13.2199 7.518C13.8286 7.82019 14.3694 8.24305 14.8095 8.76085C15.2496 9.27865 15.5798 9.88058 15.7799 10.53C15.8196 10.6561 15.8251 10.7904 15.7961 10.9193C15.767 11.0482 15.7044 11.1672 15.6145 11.2641C15.5246 11.3609 15.4107 11.4323 15.2844 11.471C15.158 11.5096 15.0236 11.5141 14.8949 11.484C14.7664 11.4541 14.6479 11.3908 14.5516 11.3006C14.4552 11.2103 14.3843 11.0963 14.3459 10.97C14.1667 10.3902 13.8401 9.86685 13.398 9.45109C12.956 9.03532 12.4136 8.74138 11.8239 8.598C11.6602 8.55847 11.5145 8.46496 11.4104 8.33253C11.3062 8.2001 11.2497 8.03647 11.2499 7.868V7.516C11.2498 7.37637 11.2887 7.23949 11.3622 7.12076C11.4357 7.00204 11.5409 6.90619 11.6659 6.844C11.9691 6.69376 12.2126 6.44543 12.3568 6.13935C12.501 5.83327 12.5375 5.48743 12.4603 5.15799C12.3832 4.82855 12.1969 4.53487 11.9318 4.32465C11.6667 4.11443 11.3383 4.00002 10.9999 4C10.801 4 10.6103 3.92099 10.4696 3.78033C10.3289 3.63968 10.2499 3.44892 10.2499 3.25C10.2499 3.05109 10.3289 2.86033 10.4696 2.71967C10.6103 2.57902 10.801 2.5 10.9999 2.5ZM5.49993 2C5.23359 1.99398 4.96873 2.04123 4.72091 2.13898C4.47308 2.23672 4.24728 2.38299 4.05676 2.56921C3.86624 2.75542 3.71484 2.97782 3.61146 3.22335C3.50807 3.46888 3.45478 3.73259 3.45471 3.99899C3.45465 4.2654 3.50781 4.52914 3.61107 4.77472C3.71433 5.0203 3.86562 5.24277 4.05604 5.42908C4.24647 5.61539 4.4722 5.76177 4.71998 5.85964C4.96775 5.95751 5.23259 6.00489 5.49893 5.999C6.02149 5.98745 6.51877 5.77178 6.8843 5.39817C7.24984 5.02455 7.45458 4.52268 7.45471 3.99999C7.45485 3.4773 7.25035 2.97533 6.885 2.60154C6.51965 2.22774 6.02249 2.01182 5.49993 2Z" fill="#4C4C4C"/>
</svg>
